<svg width="592" height="183" viewBox="0 0 592 183" xmlns="http://www.w3.org/2000/svg"><title>Logo</title><g fill="none" fill-rule="evenodd"><path d="M78.23.504c.96-.555 2.514-.556 3.477 0l76.198 43.992c.96.555 1.738 1.9 1.738 3.01v87.987c0 1.108-.776 2.455-1.738 3.01l-76.198 43.993c-.96.555-2.514.556-3.476 0L2.034 138.504c-.96-.555-1.74-1.9-1.74-3.01V47.506c0-1.108.777-2.455 1.74-3.01L78.23.503z" fill="#D8D8D8"/><path d="M79.97 93.52l71-40h-142l71 40zm0-80l71 40h-142l71-40z" fill="#FFF"/><path d="M215.67 15.575h35.53v91.12h52.02v30.43h-87.55V15.575zM332.625 136.36c-5.837-2.323-10.823-5.525-14.96-9.605-4.137-4.08-7.338-8.925-9.605-14.535-2.267-5.61-3.4-11.702-3.4-18.275 0-6.573 1.133-12.665 3.4-18.275 2.267-5.61 5.468-10.483 9.605-14.62 4.137-4.137 9.123-7.367 14.96-9.69 5.837-2.323 12.382-3.485 19.635-3.485 7.253 0 13.798 1.162 19.635 3.485 5.837 2.323 10.795 5.553 14.875 9.69s7.225 9.01 9.435 14.62c2.21 5.61 3.315 11.702 3.315 18.275 0 6.573-1.105 12.665-3.315 18.275-2.21 5.61-5.355 10.455-9.435 14.535s-9.038 7.282-14.875 9.605c-5.837 2.323-12.382 3.485-19.635 3.485-7.253 0-13.798-1.162-19.635-3.485zm19.295-17.935c4.987 0 8.727-2.238 11.22-6.715 2.493-4.477 3.74-10.398 3.74-17.765 0-7.367-1.247-13.288-3.74-17.765-2.493-4.477-6.233-6.715-11.22-6.715-4.987 0-8.67 2.238-11.05 6.715-2.38 4.477-3.57 10.398-3.57 17.765 0 7.367 1.19 13.288 3.57 17.765s6.063 6.715 11.05 6.715zm96.88 48.96c-12.24 0-22.298-2.38-30.175-7.14-7.877-4.76-12.608-11.957-14.195-21.59h30.94c.567 1.813 1.898 3.485 3.995 5.015 2.097 1.53 5.072 2.295 8.925 2.295 5.213 0 8.84-1.388 10.88-4.165 2.04-2.777 3.06-6.432 3.06-10.965v-7.82h-.68c-2.607 2.947-5.638 5.327-9.095 7.14-3.457 1.813-7.735 2.72-12.835 2.72-4.987 0-9.69-.85-14.11-2.55-4.42-1.7-8.33-4.278-11.73-7.735-3.4-3.457-6.092-7.735-8.075-12.835-1.983-5.1-2.975-11.05-2.975-17.85 0-6.233.85-12.042 2.55-17.425 1.7-5.383 4.08-10.058 7.14-14.025 3.06-3.967 6.772-7.083 11.135-9.35 4.363-2.267 9.208-3.4 14.535-3.4 6.12 0 11.135 1.105 15.045 3.315s7.112 5.185 9.605 8.925h.51v-9.52h30.6v76.33c0 7.027-1.162 13.147-3.485 18.36-2.323 5.213-5.412 9.463-9.265 12.75-3.967 3.4-8.727 5.837-14.28 7.31-5.553 1.473-11.56 2.21-18.02 2.21zm0-56.95c4.76 0 8.415-1.87 10.965-5.61 2.55-3.74 3.825-8.5 3.825-14.28 0-5.44-1.275-10.058-3.825-13.855-2.55-3.797-6.205-5.695-10.965-5.695-4.533 0-8.132 1.785-10.795 5.355-2.663 3.57-3.995 8.302-3.995 14.195 0 5.78 1.332 10.54 3.995 14.28 2.663 3.74 6.262 5.61 10.795 5.61zm95.73 29.41c-7.253 0-13.798-1.162-19.635-3.485-5.837-2.323-10.823-5.525-14.96-9.605-4.137-4.08-7.338-8.925-9.605-14.535-2.267-5.61-3.4-11.702-3.4-18.275 0-6.573 1.133-12.665 3.4-18.275 2.267-5.61 5.468-10.483 9.605-14.62 4.137-4.137 9.123-7.367 14.96-9.69 5.837-2.323 12.382-3.485 19.635-3.485 7.253 0 13.798 1.162 19.635 3.485 5.837 2.323 10.795 5.553 14.875 9.69s7.225 9.01 9.435 14.62c2.21 5.61 3.315 11.702 3.315 18.275 0 6.573-1.105 12.665-3.315 18.275-2.21 5.61-5.355 10.455-9.435 14.535s-9.038 7.282-14.875 9.605c-5.837 2.323-12.382 3.485-19.635 3.485zm-.34-21.42c4.987 0 8.727-2.238 11.22-6.715 2.493-4.477 3.74-10.398 3.74-17.765 0-7.367-1.247-13.288-3.74-17.765-2.493-4.477-6.233-6.715-11.22-6.715-4.987 0-8.67 2.238-11.05 6.715-2.38 4.477-3.57 10.398-3.57 17.765 0 7.367 1.19 13.288 3.57 17.765s6.063 6.715 11.05 6.715z" fill="#D8D8D8"/></g></svg>